<?xml version="1.0" encoding="UTF-8"?>
<svg id="_лой_1" data-name="Слой 1" xmlns="http://www.w3.org/2000/svg" xmlns:xlink="http://www.w3.org/1999/xlink" viewBox="0 0 31 31.37">
  <defs>
    <style>
      .cls-1 {
        fill: #fff;
      }

      .cls-2 {
        fill: #165bdb;
      }

      .cls-3 {
        clip-path: url(#clippath);
      }

      .cls-4 {
        fill: none;
      }

      .cls-5 {
        clip-path: url(#clippath-1);
      }
    </style>
    <clipPath id="clippath">
      <circle class="cls-4" cx="15.5" cy="15.5" r="15.5"/>
    </clipPath>
    <clipPath id="clippath-1">
      <rect class="cls-4" x="2.5" y="5.37" width="26" height="26"/>
    </clipPath>
  </defs>
  <circle class="cls-1" cx="15.5" cy="15.5" r="15.5"/>
  <g class="cls-3">
    <g class="cls-5">
      <path class="cls-2" d="M4.07,27.56v-1.87c.03-.68,.25-1.34,.64-1.9,.38-.56,.91-1.01,1.53-1.3,5.95-2.39,12.58-2.39,18.53,0,.62,.29,1.15,.74,1.53,1.3,.38,.56,.6,1.22,.64,1.9v1.87c0,.5-.1,1-.29,1.46-.19,.46-.47,.88-.83,1.24-.35,.35-.78,.63-1.24,.83-.46,.19-.96,.29-1.46,.29H7.89c-.5,0-1-.1-1.46-.29-.46-.19-.88-.47-1.24-.83s-.64-.77-.83-1.24c-.19-.46-.29-.96-.29-1.46ZM15.5,5.37c-1.26,0-2.48,.37-3.53,1.07-1.04,.7-1.86,1.69-2.34,2.85-.48,1.16-.61,2.44-.36,3.67,.24,1.23,.85,2.36,1.74,3.25,.89,.89,2.02,1.49,3.25,1.74,1.23,.25,2.51,.12,3.67-.36,1.16-.48,2.15-1.29,2.85-2.34,.7-1.04,1.07-2.27,1.07-3.53,0-.83-.16-1.66-.48-2.43-.32-.77-.79-1.47-1.38-2.06-.59-.59-1.29-1.06-2.06-1.38-.77-.32-1.6-.48-2.43-.48Z"/>
    </g>
  </g>
</svg>