<?xml version="1.0" encoding="UTF-8"?>
<svg id="_лой_1" data-name="Слой 1" xmlns="http://www.w3.org/2000/svg" viewBox="0 0 31.5 31.5">
  <defs>
    <style>
      .cls-1 {
        fill: #fff;
      }

      .cls-2 {
        fill: #165bdb;
      }
    </style>
  </defs>
  <circle class="cls-2" cx="15.75" cy="15.75" r="15.5"/>
  <path class="cls-1" d="M15.75,0C7.05,0,0,7.05,0,15.75s7.05,15.75,15.75,15.75,15.75-7.05,15.75-15.75S24.45,0,15.75,0Zm7.74,10.79l-2.59,12.18c-.19,.86-.71,1.07-1.42,.67l-3.94-2.9-1.9,1.83c-.21,.21-.39,.39-.79,.39l.28-4.01,7.3-6.59c.32-.28-.07-.44-.49-.16l-9.02,5.68-3.89-1.21c-.84-.27-.86-.84,.18-1.25l15.19-5.86c.71-.25,1.32,.17,1.09,1.24h0Z"/>
</svg>